o UBP_Points
v 4.172102451324463 -0.678485095500946 2.670808792114258 0 0.9999999999999999 0.9999999999999999
v -4.316058158874512 2.0518252849578857 -1.7781040668487549 0 0.9999999999999999 0.9999999999999999
v -4.172102451324463 0.678485095500946 -2.670808792114258 0 0.9999999999999999 0.9999999999999999
v -3.7438247203826904 -0.7410928606987 -3.381502389907837 0 0.9999999999999999 0.9999999999999999
v -1.3308724164962769 -0.8227441310882568 -4.748880863189697 0 0.9999999999999999 0.9999999999999999
v -0.4094533324241638 -2.175703525543213 -4.59332799911499 0 0.9999999999999999 0.9999999999999999
v 1.4386860132217407 -0.6839418411254883 -4.8438005447387695 0 0.9999999999999999 0.9999999999999999
v 4.569371223449707 -1.7822669744491577 -0.9717869162559509 0 0.9999999999999999 0.9999999999999999
p 1 2 3 4 5 6 7 8 
o UBP_Line_0
v 0 0 0
v 4.172102451324463 -0.678485095500946 2.670808792114258
l 9 10 
o UBP_Line_1
v 0 0 0
v -4.316058158874512 2.0518252849578857 -1.7781040668487549
l 11 12 
o UBP_Line_2
v 0 0 0
v -4.172102451324463 0.678485095500946 -2.670808792114258
l 13 14 
o UBP_Line_3
v 0 0 0
v -3.7438247203826904 -0.7410928606987 -3.381502389907837
l 15 16 
o UBP_Line_4
v 0 0 0
v -1.3308724164962769 -0.8227441310882568 -4.748880863189697
l 17 18 
o UBP_Line_5
v 0 0 0
v -0.4094533324241638 -2.175703525543213 -4.59332799911499
l 19 20 
o UBP_Line_6
v 0 0 0
v 1.4386860132217407 -0.6839418411254883 -4.8438005447387695
l 21 22 
o UBP_Line_7
v 0 0 0
v 4.569371223449707 -1.7822669744491577 -0.9717869162559509
l 23 24 
o UBP_Sphere_0
v 0 1.5 0
v 0 1.5 0
v 0 1.5 0
v 0 1.5 0
v 0 1.5 0
v 0 1.5 0
v 0 1.5 0
v 0 1.5 0
v 0 1.5 0
v 0 1.5 0
v 0 1.5 0
v 0 1.5 0
v 0 1.5 0
v 0 1.5 0
v 0 1.5 0
v 0 1.5 0
v 0 1.5 0
v -0.2926354706287384 1.4711779356002808 0
v -0.27035993337631226 1.4711779356002808 0.11198674887418747
v -0.20692452788352966 1.4711779356002808 0.20692452788352966
v -0.11198674887418747 1.4711779356002808 0.27035993337631226
v -1.7918755351676884e-17 1.4711779356002808 0.2926354706287384
v 0.11198674887418747 1.4711779356002808 0.27035993337631226
v 0.20692452788352966 1.4711779356002808 0.20692452788352966
v 0.27035993337631226 1.4711779356002808 0.11198674887418747
v 0.2926354706287384 1.4711779356002808 3.583751070335377e-17
v 0.27035993337631226 1.4711779356002808 -0.11198674887418747
v 0.20692452788352966 1.4711779356002808 -0.20692452788352966
v 0.11198674887418747 1.4711779356002808 -0.27035993337631226
v 5.375626770939188e-17 1.4711779356002808 -0.2926354706287384
v -0.11198674887418747 1.4711779356002808 -0.27035993337631226
v -0.20692452788352966 1.4711779356002808 -0.20692452788352966
v -0.27035993337631226 1.4711779356002808 -0.11198674887418747
v -0.2926354706287384 1.4711779356002808 -7.167502140670754e-17
v -0.5740251541137695 1.3858193159103394 0
v -0.5303300619125366 1.3858193159103394 0.219669908285141
v -0.4058970808982849 1.3858193159103394 0.4058970808982849
v -0.219669908285141 1.3858193159103394 0.5303300619125366
v -3.5148902695738074e-17 1.3858193159103394 0.5740251541137695
v 0.219669908285141 1.3858193159103394 0.5303300619125366
v 0.4058970808982849 1.3858193159103394 0.4058970808982849
v 0.5303300619125366 1.3858193159103394 0.219669908285141
v 0.5740251541137695 1.3858193159103394 7.029780539147615e-17
v 0.5303300619125366 1.3858193159103394 -0.219669908285141
v 0.4058970808982849 1.3858193159103394 -0.4058970808982849
v 0.219669908285141 1.3858193159103394 -0.5303300619125366
v 1.0544670808721422e-16 1.3858193159103394 -0.5740251541137695
v -0.219669908285141 1.3858193159103394 -0.5303300619125366
v -0.4058970808982849 1.3858193159103394 -0.4058970808982849
v -0.5303300619125366 1.3858193159103394 -0.219669908285141
v -0.5740251541137695 1.3858193159103394 -1.405956107829523e-16
v -0.8333553671836853 1.2472044229507446 0
v -0.7699199318885803 1.2472044229507446 0.31891128420829773
v -0.5892712473869324 1.2472044229507446 0.5892712473869324
v -0.31891128420829773 1.2472044229507446 0.7699199318885803
v -5.10282988410859e-17 1.2472044229507446 0.8333553671836853
v 0.31891128420829773 1.2472044229507446 0.7699199318885803
v 0.5892712473869324 1.2472044229507446 0.5892712473869324
v 0.7699199318885803 1.2472044229507446 0.31891128420829773
v 0.8333553671836853 1.2472044229507446 1.020565976821718e-16
v 0.7699199318885803 1.2472044229507446 -0.31891128420829773
v 0.5892712473869324 1.2472044229507446 -0.5892712473869324
v 0.31891128420829773 1.2472044229507446 -0.7699199318885803
v 1.5308489983198014e-16 1.2472044229507446 -0.8333553671836853
v -0.31891128420829773 1.2472044229507446 -0.7699199318885803
v -0.5892712473869324 1.2472044229507446 -0.5892712473869324
v -0.7699199318885803 1.2472044229507446 -0.31891128420829773
v -0.8333553671836853 1.2472044229507446 -2.041131953643436e-16
v -1.0606601238250732 1.0606601238250732 0
v -0.9799222350120544 1.0606601238250732 0.4058970808982849
v -0.75 1.0606601238250732 0.75
v -0.4058970808982849 1.0606601238250732 0.9799222350120544
v -6.494670121697671e-17 1.0606601238250732 1.0606601238250732
v 0.4058970808982849 1.0606601238250732 0.9799222350120544
v 0.75 1.0606601238250732 0.75
v 0.9799222350120544 1.0606601238250732 0.4058970808982849
v 1.0606601238250732 1.0606601238250732 1.2989340243395341e-16
v 0.9799222350120544 1.0606601238250732 -0.4058970808982849
v 0.75 1.0606601238250732 -0.75
v 0.4058970808982849 1.0606601238250732 -0.9799222350120544
v 1.9484011688581992e-16 1.0606601238250732 -1.0606601238250732
v -0.4058970808982849 1.0606601238250732 -0.9799222350120544
v -0.75 1.0606601238250732 -0.75
v -0.9799222350120544 1.0606601238250732 -0.4058970808982849
v -1.0606601238250732 1.0606601238250732 -2.5978680486790683e-16
v -1.2472044229507446 0.8333553671836853 0
v -1.1522666215896606 0.8333553671836853 0.4772844612598419
v -0.8819066882133484 0.8333553671836853 0.8819066882133484
v -0.4772844612598419 0.8333553671836853 1.1522666215896606
v -7.636924491316637e-17 0.8333553671836853 1.2472044229507446
v 0.4772844612598419 0.8333553671836853 1.1522666215896606
v 0.8819066882133484 0.8333553671836853 0.8819066882133484
v 1.1522666215896606 0.8333553671836853 0.4772844612598419
v 1.2472044229507446 0.8333553671836853 1.5273848982633273e-16
v 1.1522666215896606 0.8333553671836853 -0.4772844612598419
v 0.8819066882133484 0.8333553671836853 -0.8819066882133484
v 0.4772844612598419 0.8333553671836853 -1.1522666215896606
v 2.291077479743889e-16 0.8333553671836853 -1.2472044229507446
v -0.4772844612598419 0.8333553671836853 -1.1522666215896606
v -0.8819066882133484 0.8333553671836853 -0.8819066882133484
v -1.1522666215896606 0.8333553671836853 -0.4772844612598419
v -1.2472044229507446 0.8333553671836853 -3.0547697965266547e-16
v -1.3858193159103394 0.5740251541137695 0
v -1.2803300619125366 0.5740251541137695 0.5303300619125366
v -0.9799222350120544 0.5740251541137695 0.9799222350120544
v -0.5303300619125366 0.5740251541137695 1.2803300619125366
v -8.485695841346278e-17 0.5740251541137695 1.3858193159103394
v 0.5303300619125366 0.5740251541137695 1.2803300619125366
v 0.9799222350120544 0.5740251541137695 0.9799222350120544
v 1.2803300619125366 0.5740251541137695 0.5303300619125366
v 1.3858193159103394 0.5740251541137695 1.6971391682692557e-16
v 1.2803300619125366 0.5740251541137695 -0.5303300619125366
v 0.9799222350120544 0.5740251541137695 -0.9799222350120544
v 0.5303300619125366 0.5740251541137695 -1.2803300619125366
v 2.5457088185783325e-16 0.5740251541137695 -1.3858193159103394
v -0.5303300619125366 0.5740251541137695 -1.2803300619125366
v -0.9799222350120544 0.5740251541137695 -0.9799222350120544
v -1.2803300619125366 0.5740251541137695 -0.5303300619125366
v -1.3858193159103394 0.5740251541137695 -3.3942783365385114e-16
v -1.4711779356002808 0.2926354706287384 0
v -1.3591911792755127 0.2926354706287384 0.562995433807373
v -1.0402798652648926 0.2926354706287384 1.0402798652648926
v -0.562995433807373 0.2926354706287384 1.3591911792755127
v -9.008366785872405e-17 0.2926354706287384 1.4711779356002808
v 0.562995433807373 0.2926354706287384 1.3591911792755127
v 1.0402798652648926 0.2926354706287384 1.0402798652648926
v 1.3591911792755127 0.2926354706287384 0.562995433807373
v 1.4711779356002808 0.2926354706287384 1.801673357174481e-16
v 1.3591911792755127 0.2926354706287384 -0.562995433807373
v 1.0402798652648926 0.2926354706287384 -1.0402798652648926
v 0.562995433807373 0.2926354706287384 -1.3591911792755127
v 2.7025099695872725e-16 0.2926354706287384 -1.4711779356002808
v -0.562995433807373 0.2926354706287384 -1.3591911792755127
v -1.0402798652648926 0.2926354706287384 -1.0402798652648926
v -1.3591911792755127 0.2926354706287384 -0.562995433807373
v -1.4711779356002808 0.2926354706287384 -3.603346714348962e-16
v -1.5 9.184850732644269e-17 0
v -1.3858193159103394 9.184850732644269e-17 0.5740251541137695
v -1.0606601238250732 9.184850732644269e-17 1.0606601238250732
v -0.5740251541137695 9.184850732644269e-17 1.3858193159103394
v -9.184850732644269e-17 9.184850732644269e-17 1.5
v 0.5740251541137695 9.184850732644269e-17 1.3858193159103394
v 1.0606601238250732 9.184850732644269e-17 1.0606601238250732
v 1.3858193159103394 9.184850732644269e-17 0.5740251541137695
v 1.5 9.184850732644269e-17 1.8369701465288538e-16
v 1.3858193159103394 9.184850732644269e-17 -0.5740251541137695
v 1.0606601238250732 9.184850732644269e-17 -1.0606601238250732
v 0.5740251541137695 9.184850732644269e-17 -1.3858193159103394
v 2.7554553521421787e-16 9.184850732644269e-17 -1.5
v -0.5740251541137695 9.184850732644269e-17 -1.3858193159103394
v -1.0606601238250732 9.184850732644269e-17 -1.0606601238250732
v -1.3858193159103394 9.184850732644269e-17 -0.5740251541137695
v -1.5 9.184850732644269e-17 -3.6739402930577075e-16
v -1.4711779356002808 -0.2926354706287384 0
v -1.3591911792755127 -0.2926354706287384 0.562995433807373
v -1.0402798652648926 -0.2926354706287384 1.0402798652648926
v -0.562995433807373 -0.2926354706287384 1.3591911792755127
v -9.008366785872405e-17 -0.2926354706287384 1.4711779356002808
v 0.562995433807373 -0.2926354706287384 1.3591911792755127
v 1.0402798652648926 -0.2926354706287384 1.0402798652648926
v 1.3591911792755127 -0.2926354706287384 0.562995433807373
v 1.4711779356002808 -0.2926354706287384 1.801673357174481e-16
v 1.3591911792755127 -0.2926354706287384 -0.562995433807373
v 1.0402798652648926 -0.2926354706287384 -1.0402798652648926
v 0.562995433807373 -0.2926354706287384 -1.3591911792755127
v 2.7025099695872725e-16 -0.2926354706287384 -1.4711779356002808
v -0.562995433807373 -0.2926354706287384 -1.3591911792755127
v -1.0402798652648926 -0.2926354706287384 -1.0402798652648926
v -1.3591911792755127 -0.2926354706287384 -0.562995433807373
v -1.4711779356002808 -0.2926354706287384 -3.603346714348962e-16
v -1.3858193159103394 -0.5740251541137695 0
v -1.2803300619125366 -0.5740251541137695 0.5303300619125366
v -0.9799222350120544 -0.5740251541137695 0.9799222350120544
v -0.5303300619125366 -0.5740251541137695 1.2803300619125366
v -8.485695841346278e-17 -0.5740251541137695 1.3858193159103394
v 0.5303300619125366 -0.5740251541137695 1.2803300619125366
v 0.9799222350120544 -0.5740251541137695 0.9799222350120544
v 1.2803300619125366 -0.5740251541137695 0.5303300619125366
v 1.3858193159103394 -0.5740251541137695 1.6971391682692557e-16
v 1.2803300619125366 -0.5740251541137695 -0.5303300619125366
v 0.9799222350120544 -0.5740251541137695 -0.9799222350120544
v 0.5303300619125366 -0.5740251541137695 -1.2803300619125366
v 2.5457088185783325e-16 -0.5740251541137695 -1.3858193159103394
v -0.5303300619125366 -0.5740251541137695 -1.2803300619125366
v -0.9799222350120544 -0.5740251541137695 -0.9799222350120544
v -1.2803300619125366 -0.5740251541137695 -0.5303300619125366
v -1.3858193159103394 -0.5740251541137695 -3.3942783365385114e-16
v -1.2472044229507446 -0.8333553671836853 0
v -1.1522666215896606 -0.8333553671836853 0.4772844612598419
v -0.8819066882133484 -0.8333553671836853 0.8819066882133484
v -0.4772844612598419 -0.8333553671836853 1.1522666215896606
v -7.636924491316637e-17 -0.8333553671836853 1.2472044229507446
v 0.4772844612598419 -0.8333553671836853 1.1522666215896606
v 0.8819066882133484 -0.8333553671836853 0.8819066882133484
v 1.1522666215896606 -0.8333553671836853 0.4772844612598419
v 1.2472044229507446 -0.8333553671836853 1.5273848982633273e-16
v 1.1522666215896606 -0.8333553671836853 -0.4772844612598419
v 0.8819066882133484 -0.8333553671836853 -0.8819066882133484
v 0.4772844612598419 -0.8333553671836853 -1.1522666215896606
v 2.291077479743889e-16 -0.8333553671836853 -1.2472044229507446
v -0.4772844612598419 -0.8333553671836853 -1.1522666215896606
v -0.8819066882133484 -0.8333553671836853 -0.8819066882133484
v -1.1522666215896606 -0.8333553671836853 -0.4772844612598419
v -1.2472044229507446 -0.8333553671836853 -3.0547697965266547e-16
v -1.0606601238250732 -1.0606601238250732 0
v -0.9799222350120544 -1.0606601238250732 0.4058970808982849
v -0.75 -1.0606601238250732 0.75
v -0.4058970808982849 -1.0606601238250732 0.9799222350120544
v -6.494670121697671e-17 -1.0606601238250732 1.0606601238250732
v 0.4058970808982849 -1.0606601238250732 0.9799222350120544
v 0.75 -1.0606601238250732 0.75
v 0.9799222350120544 -1.0606601238250732 0.4058970808982849
v 1.0606601238250732 -1.0606601238250732 1.2989340243395341e-16
v 0.9799222350120544 -1.0606601238250732 -0.4058970808982849
v 0.75 -1.0606601238250732 -0.75
v 0.4058970808982849 -1.0606601238250732 -0.9799222350120544
v 1.9484011688581992e-16 -1.0606601238250732 -1.0606601238250732
v -0.4058970808982849 -1.0606601238250732 -0.9799222350120544
v -0.75 -1.0606601238250732 -0.75
v -0.9799222350120544 -1.0606601238250732 -0.4058970808982849
v -1.0606601238250732 -1.0606601238250732 -2.5978680486790683e-16
v -0.8333553671836853 -1.2472044229507446 0
v -0.7699199318885803 -1.2472044229507446 0.31891128420829773
v -0.5892712473869324 -1.2472044229507446 0.5892712473869324
v -0.31891128420829773 -1.2472044229507446 0.7699199318885803
v -5.10282988410859e-17 -1.2472044229507446 0.8333553671836853
v 0.31891128420829773 -1.2472044229507446 0.7699199318885803
v 0.5892712473869324 -1.2472044229507446 0.5892712473869324
v 0.7699199318885803 -1.2472044229507446 0.31891128420829773
v 0.8333553671836853 -1.2472044229507446 1.020565976821718e-16
v 0.7699199318885803 -1.2472044229507446 -0.31891128420829773
v 0.5892712473869324 -1.2472044229507446 -0.5892712473869324
v 0.31891128420829773 -1.2472044229507446 -0.7699199318885803
v 1.5308489983198014e-16 -1.2472044229507446 -0.8333553671836853
v -0.31891128420829773 -1.2472044229507446 -0.7699199318885803
v -0.5892712473869324 -1.2472044229507446 -0.5892712473869324
v -0.7699199318885803 -1.2472044229507446 -0.31891128420829773
v -0.8333553671836853 -1.2472044229507446 -2.041131953643436e-16
v -0.5740251541137695 -1.3858193159103394 0
v -0.5303300619125366 -1.3858193159103394 0.219669908285141
v -0.4058970808982849 -1.3858193159103394 0.4058970808982849
v -0.219669908285141 -1.3858193159103394 0.5303300619125366
v -3.5148902695738074e-17 -1.3858193159103394 0.5740251541137695
v 0.219669908285141 -1.3858193159103394 0.5303300619125366
v 0.4058970808982849 -1.3858193159103394 0.4058970808982849
v 0.5303300619125366 -1.3858193159103394 0.219669908285141
v 0.5740251541137695 -1.3858193159103394 7.029780539147615e-17
v 0.5303300619125366 -1.3858193159103394 -0.219669908285141
v 0.4058970808982849 -1.3858193159103394 -0.4058970808982849
v 0.219669908285141 -1.3858193159103394 -0.5303300619125366
v 1.0544670808721422e-16 -1.3858193159103394 -0.5740251541137695
v -0.219669908285141 -1.3858193159103394 -0.5303300619125366
v -0.4058970808982849 -1.3858193159103394 -0.4058970808982849
v -0.5303300619125366 -1.3858193159103394 -0.219669908285141
v -0.5740251541137695 -1.3858193159103394 -1.405956107829523e-16
v -0.2926354706287384 -1.4711779356002808 0
v -0.27035993337631226 -1.4711779356002808 0.11198674887418747
v -0.20692452788352966 -1.4711779356002808 0.20692452788352966
v -0.11198674887418747 -1.4711779356002808 0.27035993337631226
v -1.7918755351676884e-17 -1.4711779356002808 0.2926354706287384
v 0.11198674887418747 -1.4711779356002808 0.27035993337631226
v 0.20692452788352966 -1.4711779356002808 0.20692452788352966
v 0.27035993337631226 -1.4711779356002808 0.11198674887418747
v 0.2926354706287384 -1.4711779356002808 3.583751070335377e-17
v 0.27035993337631226 -1.4711779356002808 -0.11198674887418747
v 0.20692452788352966 -1.4711779356002808 -0.20692452788352966
v 0.11198674887418747 -1.4711779356002808 -0.27035993337631226
v 5.375626770939188e-17 -1.4711779356002808 -0.2926354706287384
v -0.11198674887418747 -1.4711779356002808 -0.27035993337631226
v -0.20692452788352966 -1.4711779356002808 -0.20692452788352966
v -0.27035993337631226 -1.4711779356002808 -0.11198674887418747
v -0.2926354706287384 -1.4711779356002808 -7.167502140670754e-17
v -1.8369701465288538e-16 -1.5 0
v -1.6971391682692557e-16 -1.5 7.029780539147615e-17
v -1.2989340243395341e-16 -1.5 1.2989340243395341e-16
v -7.029780539147615e-17 -1.5 1.6971391682692557e-16
v -1.1248198179158957e-32 -1.5 1.8369701465288538e-16
v 7.029780539147615e-17 -1.5 1.6971391682692557e-16
v 1.2989340243395341e-16 -1.5 1.2989340243395341e-16
v 1.6971391682692557e-16 -1.5 7.029780539147615e-17
v 1.8369701465288538e-16 -1.5 2.2496396358317913e-32
v 1.6971391682692557e-16 -1.5 -7.029780539147615e-17
v 1.2989340243395341e-16 -1.5 -1.2989340243395341e-16
v 7.029780539147615e-17 -1.5 -1.6971391682692557e-16
v 3.374459600684481e-32 -1.5 -1.8369701465288538e-16
v -7.029780539147615e-17 -1.5 -1.6971391682692557e-16
v -1.2989340243395341e-16 -1.5 -1.2989340243395341e-16
v -1.6971391682692557e-16 -1.5 -7.029780539147615e-17
v -1.8369701465288538e-16 -1.5 -4.4992792716635827e-32
vt 0.03125 1
vt 0.09375 1
vt 0.15625 1
vt 0.21875 1
vt 0.28125 1
vt 0.34375 1
vt 0.40625 1
vt 0.46875 1
vt 0.53125 1
vt 0.59375 1
vt 0.65625 1
vt 0.71875 1
vt 0.78125 1
vt 0.84375 1
vt 0.90625 1
vt 0.96875 1
vt 1.03125 1
vt 0 0.9375
vt 0.0625 0.9375
vt 0.125 0.9375
vt 0.1875 0.9375
vt 0.25 0.9375
vt 0.3125 0.9375
vt 0.375 0.9375
vt 0.4375 0.9375
vt 0.5 0.9375
vt 0.5625 0.9375
vt 0.625 0.9375
vt 0.6875 0.9375
vt 0.75 0.9375
vt 0.8125 0.9375
vt 0.875 0.9375
vt 0.9375 0.9375
vt 1 0.9375
vt 0 0.875
vt 0.0625 0.875
vt 0.125 0.875
vt 0.1875 0.875
vt 0.25 0.875
vt 0.3125 0.875
vt 0.375 0.875
vt 0.4375 0.875
vt 0.5 0.875
vt 0.5625 0.875
vt 0.625 0.875
vt 0.6875 0.875
vt 0.75 0.875
vt 0.8125 0.875
vt 0.875 0.875
vt 0.9375 0.875
vt 1 0.875
vt 0 0.8125
vt 0.0625 0.8125
vt 0.125 0.8125
vt 0.1875 0.8125
vt 0.25 0.8125
vt 0.3125 0.8125
vt 0.375 0.8125
vt 0.4375 0.8125
vt 0.5 0.8125
vt 0.5625 0.8125
vt 0.625 0.8125
vt 0.6875 0.8125
vt 0.75 0.8125
vt 0.8125 0.8125
vt 0.875 0.8125
vt 0.9375 0.8125
vt 1 0.8125
vt 0 0.75
vt 0.0625 0.75
vt 0.125 0.75
vt 0.1875 0.75
vt 0.25 0.75
vt 0.3125 0.75
vt 0.375 0.75
vt 0.4375 0.75
vt 0.5 0.75
vt 0.5625 0.75
vt 0.625 0.75
vt 0.6875 0.75
vt 0.75 0.75
vt 0.8125 0.75
vt 0.875 0.75
vt 0.9375 0.75
vt 1 0.75
vt 0 0.6875
vt 0.0625 0.6875
vt 0.125 0.6875
vt 0.1875 0.6875
vt 0.25 0.6875
vt 0.3125 0.6875
vt 0.375 0.6875
vt 0.4375 0.6875
vt 0.5 0.6875
vt 0.5625 0.6875
vt 0.625 0.6875
vt 0.6875 0.6875
vt 0.75 0.6875
vt 0.8125 0.6875
vt 0.875 0.6875
vt 0.9375 0.6875
vt 1 0.6875
vt 0 0.625
vt 0.0625 0.625
vt 0.125 0.625
vt 0.1875 0.625
vt 0.25 0.625
vt 0.3125 0.625
vt 0.375 0.625
vt 0.4375 0.625
vt 0.5 0.625
vt 0.5625 0.625
vt 0.625 0.625
vt 0.6875 0.625
vt 0.75 0.625
vt 0.8125 0.625
vt 0.875 0.625
vt 0.9375 0.625
vt 1 0.625
vt 0 0.5625
vt 0.0625 0.5625
vt 0.125 0.5625
vt 0.1875 0.5625
vt 0.25 0.5625
vt 0.3125 0.5625
vt 0.375 0.5625
vt 0.4375 0.5625
vt 0.5 0.5625
vt 0.5625 0.5625
vt 0.625 0.5625
vt 0.6875 0.5625
vt 0.75 0.5625
vt 0.8125 0.5625
vt 0.875 0.5625
vt 0.9375 0.5625
vt 1 0.5625
vt 0 0.5
vt 0.0625 0.5
vt 0.125 0.5
vt 0.1875 0.5
vt 0.25 0.5
vt 0.3125 0.5
vt 0.375 0.5
vt 0.4375 0.5
vt 0.5 0.5
vt 0.5625 0.5
vt 0.625 0.5
vt 0.6875 0.5
vt 0.75 0.5
vt 0.8125 0.5
vt 0.875 0.5
vt 0.9375 0.5
vt 1 0.5
vt 0 0.4375
vt 0.0625 0.4375
vt 0.125 0.4375
vt 0.1875 0.4375
vt 0.25 0.4375
vt 0.3125 0.4375
vt 0.375 0.4375
vt 0.4375 0.4375
vt 0.5 0.4375
vt 0.5625 0.4375
vt 0.625 0.4375
vt 0.6875 0.4375
vt 0.75 0.4375
vt 0.8125 0.4375
vt 0.875 0.4375
vt 0.9375 0.4375
vt 1 0.4375
vt 0 0.375
vt 0.0625 0.375
vt 0.125 0.375
vt 0.1875 0.375
vt 0.25 0.375
vt 0.3125 0.375
vt 0.375 0.375
vt 0.4375 0.375
vt 0.5 0.375
vt 0.5625 0.375
vt 0.625 0.375
vt 0.6875 0.375
vt 0.75 0.375
vt 0.8125 0.375
vt 0.875 0.375
vt 0.9375 0.375
vt 1 0.375
vt 0 0.3125
vt 0.0625 0.3125
vt 0.125 0.3125
vt 0.1875 0.3125
vt 0.25 0.3125
vt 0.3125 0.3125
vt 0.375 0.3125
vt 0.4375 0.3125
vt 0.5 0.3125
vt 0.5625 0.3125
vt 0.625 0.3125
vt 0.6875 0.3125
vt 0.75 0.3125
vt 0.8125 0.3125
vt 0.875 0.3125
vt 0.9375 0.3125
vt 1 0.3125
vt 0 0.25
vt 0.0625 0.25
vt 0.125 0.25
vt 0.1875 0.25
vt 0.25 0.25
vt 0.3125 0.25
vt 0.375 0.25
vt 0.4375 0.25
vt 0.5 0.25
vt 0.5625 0.25
vt 0.625 0.25
vt 0.6875 0.25
vt 0.75 0.25
vt 0.8125 0.25
vt 0.875 0.25
vt 0.9375 0.25
vt 1 0.25
vt 0 0.1875
vt 0.0625 0.1875
vt 0.125 0.1875
vt 0.1875 0.1875
vt 0.25 0.1875
vt 0.3125 0.1875
vt 0.375 0.1875
vt 0.4375 0.1875
vt 0.5 0.1875
vt 0.5625 0.1875
vt 0.625 0.1875
vt 0.6875 0.1875
vt 0.75 0.1875
vt 0.8125 0.1875
vt 0.875 0.1875
vt 0.9375 0.1875
vt 1 0.1875
vt 0 0.125
vt 0.0625 0.125
vt 0.125 0.125
vt 0.1875 0.125
vt 0.25 0.125
vt 0.3125 0.125
vt 0.375 0.125
vt 0.4375 0.125
vt 0.5 0.125
vt 0.5625 0.125
vt 0.625 0.125
vt 0.6875 0.125
vt 0.75 0.125
vt 0.8125 0.125
vt 0.875 0.125
vt 0.9375 0.125
vt 1 0.125
vt 0 0.0625
vt 0.0625 0.0625
vt 0.125 0.0625
vt 0.1875 0.0625
vt 0.25 0.0625
vt 0.3125 0.0625
vt 0.375 0.0625
vt 0.4375 0.0625
vt 0.5 0.0625
vt 0.5625 0.0625
vt 0.625 0.0625
vt 0.6875 0.0625
vt 0.75 0.0625
vt 0.8125 0.0625
vt 0.875 0.0625
vt 0.9375 0.0625
vt 1 0.0625
vt -0.03125 0
vt 0.03125 0
vt 0.09375 0
vt 0.15625 0
vt 0.21875 0
vt 0.28125 0
vt 0.34375 0
vt 0.40625 0
vt 0.46875 0
vt 0.53125 0
vt 0.59375 0
vt 0.65625 0
vt 0.71875 0
vt 0.78125 0
vt 0.84375 0
vt 0.90625 0
vt 0.96875 0
vn 0 1 0
vn 0 1 0
vn 0 1 0
vn 0 1 0
vn 0 1 0
vn 0 1 0
vn 0 1 0
vn 0 1 0
vn 0 1 0
vn 0 1 0
vn 0 1 0
vn 0 1 0
vn 0 1 0
vn 0 1 0
vn 0 1 0
vn 0 1 0
vn 0 1 0
vn -0.19509032931342324 0.9807852789517083 0
vn -0.18023996563079556 0.9807852783043076 0.07465783717033021
vn -0.1379496942243388 0.980785279114049 0.1379496942243388
vn -0.07465783717033021 0.9807852783043076 0.18023996563079556
vn -1.1945837521388368e-17 0.9807852789517083 0.19509032931342324
vn 0.07465783717033021 0.9807852783043076 0.18023996563079556
vn 0.1379496942243388 0.980785279114049 0.1379496942243388
vn 0.18023996563079556 0.9807852783043076 0.07465783717033021
vn 0.19509032931342324 0.9807852789517083 2.3891675042776736e-17
vn 0.18023996563079556 0.9807852783043076 -0.07465783717033021
vn 0.1379496942243388 0.980785279114049 -0.1379496942243388
vn 0.07465783717033021 0.9807852783043076 -0.18023996563079556
vn 3.583751173698447e-17 0.9807852789517083 -0.19509032931342324
vn -0.07465783717033021 0.9807852783043076 -0.18023996563079556
vn -0.1379496942243388 0.980785279114049 -0.1379496942243388
vn -0.18023996563079556 0.9807852783043076 -0.07465783717033021
vn -0.19509032931342324 0.9807852789517083 -4.778335008555347e-17
vn -0.3826834370613369 0.9238795305660377 0
vn -0.3535533942319051 0.9238795295235227 0.14644661947103244
vn -0.2705980604439119 0.9238795264362049 0.2705980604439119
vn -0.14644661947103244 0.9238795295235227 0.3535533942319051
vn -2.3432603017245014e-17 0.9238795305660377 0.3826834370613369
vn 0.14644661947103244 0.9238795295235227 0.3535533942319051
vn 0.2705980604439119 0.9238795264362049 0.2705980604439119
vn 0.3535533942319051 0.9238795295235227 0.14644661947103244
vn 0.3826834370613369 0.9238795305660377 4.686520603449003e-17
vn 0.3535533942319051 0.9238795295235227 -0.14644661947103244
vn 0.2705980604439119 0.9238795264362049 -0.2705980604439119
vn 0.14644661947103244 0.9238795295235227 -0.3535533942319051
vn 7.029780739737377e-17 0.9238795305660377 -0.3826834370613369
vn -0.14644661947103244 0.9238795295235227 -0.3535533942319051
vn -0.2705980604439119 0.9238795264362049 -0.2705980604439119
vn -0.3535533942319051 0.9238795295235227 -0.14644661947103244
vn -0.3826834370613369 0.9238795305660377 -9.373041206898005e-17
vn -0.555570248949409 0.8314696016585884 0
vn -0.5132799803756309 0.8314696050141221 0.2126075202885633
vn -0.3928474841483584 0.8314696076205134 0.3928474841483584
vn -0.2126075202885633 0.8314696050141221 0.5132799803756309
vn -3.401886504589378e-17 0.8314696016585884 0.555570248949409
vn 0.2126075202885633 0.8314696050141221 0.5132799803756309
vn 0.3928474841483584 0.8314696076205134 0.3928474841483584
vn 0.5132799803756309 0.8314696050141221 0.2126075202885633
vn 0.555570248949409 0.8314696016585884 6.803773009178756e-17
vn 0.5132799803756309 0.8314696050141221 -0.2126075202885633
vn 0.3928474841483584 0.8314696076205134 -0.3928474841483584
vn 0.2126075202885633 0.8314696050141221 -0.5132799803756309
vn 1.0205659844640382e-16 0.8314696016585884 -0.555570248949409
vn -0.2126075202885633 0.8314696050141221 -0.5132799803756309
vn -0.3928474841483584 0.8314696076205134 -0.3928474841483584
vn -0.5132799803756309 0.8314696050141221 -0.2126075202885633
vn -0.555570248949409 0.8314696016585884 -1.3607546018357512e-16
vn -0.7071067811865476 0.7071067811865476 0
vn -0.6532815030743456 0.7071067617226012 0.2705980511147485
vn -0.5000000042785677 0.7071067751357388 0.5000000042785677
vn -0.2705980511147485 0.7071067617226012 0.6532815030743456
vn -4.329780375814312e-17 0.7071067811865476 0.7071067811865476
vn 0.2705980511147485 0.7071067617226012 0.6532815030743456
vn 0.5000000042785677 0.7071067751357388 0.5000000042785677
vn 0.6532815030743456 0.7071067617226012 0.2705980511147485
vn 0.7071067811865476 0.7071067811865476 8.659560751628624e-17
vn 0.6532815030743456 0.7071067617226012 -0.2705980511147485
vn 0.5000000042785677 0.7071067751357388 -0.5000000042785677
vn 0.2705980511147485 0.7071067617226012 -0.6532815030743456
vn 1.2989340465698435e-16 0.7071067811865476 -0.7071067811865476
vn -0.2705980511147485 0.7071067617226012 -0.6532815030743456
vn -0.5000000042785677 0.7071067751357388 -0.5000000042785677
vn -0.6532815030743456 0.7071067617226012 -0.2705980511147485
vn -0.7071067811865476 0.7071067811865476 -1.7319121503257247e-16
vn -0.8314696016585884 0.555570248949409 0
vn -0.7681777466291774 0.5555702439955484 0.3181896503195008
vn -0.5879377884340418 0.555570260059496 0.5879377884340418
vn -0.3181896503195008 0.5555702439955484 0.7681777466291774
vn -5.091283142626975e-17 0.555570248949409 0.8314696016585884
vn 0.3181896503195008 0.5555702439955484 0.7681777466291774
vn 0.5879377884340418 0.555570260059496 0.5879377884340418
vn 0.7681777466291774 0.5555702439955484 0.3181896503195008
vn 0.8314696016585884 0.555570248949409 1.018256628525395e-16
vn 0.7681777466291774 0.5555702439955484 -0.3181896503195008
vn 0.5879377884340418 0.555570260059496 -0.5879377884340418
vn 0.3181896503195008 0.5555702439955484 -0.7681777466291774
vn 1.5273849097008678e-16 0.555570248949409 -0.8314696016585884
vn -0.3181896503195008 0.5555702439955484 -0.7681777466291774
vn -0.5879377884340418 0.555570260059496 -0.5879377884340418
vn -0.7681777466291774 0.5555702439955484 -0.3181896503195008
vn -0.8314696016585884 0.555570248949409 -2.03651325705079e-16
vn -0.9238795305660377 0.3826834370613369 0
vn -0.8535534008993343 0.3826834201135841 0.35355337897317635
vn -0.653281488012237 0.38268341333409667 0.653281488012237
vn -0.35355337897317635 0.3826834201135841 0.8535534008993343
vn -5.657130722319695e-17 0.3826834370613369 0.9238795305660377
vn 0.35355337897317635 0.3826834201135841 0.8535534008993343
vn 0.653281488012237 0.38268341333409667 0.653281488012237
vn 0.8535534008993343 0.3826834201135841 0.35355337897317635
vn 0.9238795305660377 0.3826834370613369 1.131426144463939e-16
vn 0.8535534008993343 0.3826834201135841 -0.35355337897317635
vn 0.653281488012237 0.38268341333409667 -0.653281488012237
vn 0.35355337897317635 0.3826834201135841 -0.8535534008993343
vn 1.6971392166959086e-16 0.3826834370613369 -0.9238795305660377
vn -0.35355337897317635 0.3826834201135841 -0.8535534008993343
vn -0.653281488012237 0.38268341333409667 -0.653281488012237
vn -0.8535534008993343 0.3826834201135841 -0.35355337897317635
vn -0.9238795305660377 0.3826834370613369 -2.262852288927878e-16
vn -0.9807852789517083 0.19509032931342324 0
vn -0.9061274500025868 0.19509032307347465 0.3753302681571217
vn -0.6935199234722761 0.19509031624869655 0.6935199234722761
vn -0.3753302681571217 0.19509032307347465 0.9061274500025868
vn -6.005578251043524e-17 0.19509032931342324 0.9807852789517083
vn 0.3753302681571217 0.19509032307347465 0.9061274500025868
vn 0.6935199234722761 0.19509031624869655 0.6935199234722761
vn 0.9061274500025868 0.19509032307347465 0.3753302681571217
vn 0.9807852789517083 0.19509032931342324 1.2011156502087048e-16
vn 0.9061274500025868 0.19509032307347465 -0.3753302681571217
vn 0.6935199234722761 0.19509031624869655 -0.6935199234722761
vn 0.3753302681571217 0.19509032307347465 -0.9061274500025868
vn 1.801673409138606e-16 0.19509032931342324 -0.9807852789517083
vn -0.3753302681571217 0.19509032307347465 -0.9061274500025868
vn -0.6935199234722761 0.19509031624869655 -0.6935199234722761
vn -0.9061274500025868 0.19509032307347465 -0.3753302681571217
vn -0.9807852789517083 0.19509032931342324 -2.4022313004174096e-16
vn -1 6.123234262925839e-17 0
vn -0.9238795305660377 6.123234437647952e-17 0.3826834370613369
vn -0.7071067811865476 6.123234367720532e-17 0.7071067811865476
vn -0.3826834370613369 6.123234437647952e-17 0.9238795305660377
vn -6.123234262925839e-17 6.123234262925839e-17 1
vn 0.3826834370613369 6.123234437647952e-17 0.9238795305660377
vn 0.7071067811865476 6.123234367720532e-17 0.7071067811865476
vn 0.9238795305660377 6.123234437647952e-17 0.3826834370613369
vn 1 6.123234262925839e-17 1.2246468525851679e-16
vn 0.9238795305660377 6.123234437647952e-17 -0.3826834370613369
vn 0.7071067811865476 6.123234367720532e-17 -0.7071067811865476
vn 0.3826834370613369 6.123234437647952e-17 -0.9238795305660377
vn 1.8369701465288538e-16 6.123234262925839e-17 -1
vn -0.3826834370613369 6.123234437647952e-17 -0.9238795305660377
vn -0.7071067811865476 6.123234367720532e-17 -0.7071067811865476
vn -0.9238795305660377 6.123234437647952e-17 -0.3826834370613369
vn -1 6.123234262925839e-17 -2.4492937051703357e-16
vn -0.9807852789517083 -0.19509032931342324 0
vn -0.9061274500025868 -0.19509032307347465 0.3753302681571217
vn -0.6935199234722761 -0.19509031624869655 0.6935199234722761
vn -0.3753302681571217 -0.19509032307347465 0.9061274500025868
vn -6.005578251043524e-17 -0.19509032931342324 0.9807852789517083
vn 0.3753302681571217 -0.19509032307347465 0.9061274500025868
vn 0.6935199234722761 -0.19509031624869655 0.6935199234722761
vn 0.9061274500025868 -0.19509032307347465 0.3753302681571217
vn 0.9807852789517083 -0.19509032931342324 1.2011156502087048e-16
vn 0.9061274500025868 -0.19509032307347465 -0.3753302681571217
vn 0.6935199234722761 -0.19509031624869655 -0.6935199234722761
vn 0.3753302681571217 -0.19509032307347465 -0.9061274500025868
vn 1.801673409138606e-16 -0.19509032931342324 -0.9807852789517083
vn -0.3753302681571217 -0.19509032307347465 -0.9061274500025868
vn -0.6935199234722761 -0.19509031624869655 -0.6935199234722761
vn -0.9061274500025868 -0.19509032307347465 -0.3753302681571217
vn -0.9807852789517083 -0.19509032931342324 -2.4022313004174096e-16
vn -0.9238795305660377 -0.3826834370613369 0
vn -0.8535534008993343 -0.3826834201135841 0.35355337897317635
vn -0.653281488012237 -0.38268341333409667 0.653281488012237
vn -0.35355337897317635 -0.3826834201135841 0.8535534008993343
vn -5.657130722319695e-17 -0.3826834370613369 0.9238795305660377
vn 0.35355337897317635 -0.3826834201135841 0.8535534008993343
vn 0.653281488012237 -0.38268341333409667 0.653281488012237
vn 0.8535534008993343 -0.3826834201135841 0.35355337897317635
vn 0.9238795305660377 -0.3826834370613369 1.131426144463939e-16
vn 0.8535534008993343 -0.3826834201135841 -0.35355337897317635
vn 0.653281488012237 -0.38268341333409667 -0.653281488012237
vn 0.35355337897317635 -0.3826834201135841 -0.8535534008993343
vn 1.6971392166959086e-16 -0.3826834370613369 -0.9238795305660377
vn -0.35355337897317635 -0.3826834201135841 -0.8535534008993343
vn -0.653281488012237 -0.38268341333409667 -0.653281488012237
vn -0.8535534008993343 -0.3826834201135841 -0.35355337897317635
vn -0.9238795305660377 -0.3826834370613369 -2.262852288927878e-16
vn -0.8314696016585884 -0.555570248949409 0
vn -0.7681777466291774 -0.5555702439955484 0.3181896503195008
vn -0.5879377884340418 -0.555570260059496 0.5879377884340418
vn -0.3181896503195008 -0.5555702439955484 0.7681777466291774
vn -5.091283142626975e-17 -0.555570248949409 0.8314696016585884
vn 0.3181896503195008 -0.5555702439955484 0.7681777466291774
vn 0.5879377884340418 -0.555570260059496 0.5879377884340418
vn 0.7681777466291774 -0.5555702439955484 0.3181896503195008
vn 0.8314696016585884 -0.555570248949409 1.018256628525395e-16
vn 0.7681777466291774 -0.5555702439955484 -0.3181896503195008
vn 0.5879377884340418 -0.555570260059496 -0.5879377884340418
vn 0.3181896503195008 -0.5555702439955484 -0.7681777466291774
vn 1.5273849097008678e-16 -0.555570248949409 -0.8314696016585884
vn -0.3181896503195008 -0.5555702439955484 -0.7681777466291774
vn -0.5879377884340418 -0.555570260059496 -0.5879377884340418
vn -0.7681777466291774 -0.5555702439955484 -0.3181896503195008
vn -0.8314696016585884 -0.555570248949409 -2.03651325705079e-16
vn -0.7071067811865476 -0.7071067811865476 0
vn -0.6532815030743456 -0.7071067617226012 0.2705980511147485
vn -0.5000000042785677 -0.7071067751357388 0.5000000042785677
vn -0.2705980511147485 -0.7071067617226012 0.6532815030743456
vn -4.329780375814312e-17 -0.7071067811865476 0.7071067811865476
vn 0.2705980511147485 -0.7071067617226012 0.6532815030743456
vn 0.5000000042785677 -0.7071067751357388 0.5000000042785677
vn 0.6532815030743456 -0.7071067617226012 0.2705980511147485
vn 0.7071067811865476 -0.7071067811865476 8.659560751628624e-17
vn 0.6532815030743456 -0.7071067617226012 -0.2705980511147485
vn 0.5000000042785677 -0.7071067751357388 -0.5000000042785677
vn 0.2705980511147485 -0.7071067617226012 -0.6532815030743456
vn 1.2989340465698435e-16 -0.7071067811865476 -0.7071067811865476
vn -0.2705980511147485 -0.7071067617226012 -0.6532815030743456
vn -0.5000000042785677 -0.7071067751357388 -0.5000000042785677
vn -0.6532815030743456 -0.7071067617226012 -0.2705980511147485
vn -0.7071067811865476 -0.7071067811865476 -1.7319121503257247e-16
vn -0.555570248949409 -0.8314696016585884 0
vn -0.5132799803756309 -0.8314696050141221 0.2126075202885633
vn -0.3928474841483584 -0.8314696076205134 0.3928474841483584
vn -0.2126075202885633 -0.8314696050141221 0.5132799803756309
vn -3.401886504589378e-17 -0.8314696016585884 0.555570248949409
vn 0.2126075202885633 -0.8314696050141221 0.5132799803756309
vn 0.3928474841483584 -0.8314696076205134 0.3928474841483584
vn 0.5132799803756309 -0.8314696050141221 0.2126075202885633
vn 0.555570248949409 -0.8314696016585884 6.803773009178756e-17
vn 0.5132799803756309 -0.8314696050141221 -0.2126075202885633
vn 0.3928474841483584 -0.8314696076205134 -0.3928474841483584
vn 0.2126075202885633 -0.8314696050141221 -0.5132799803756309
vn 1.0205659844640382e-16 -0.8314696016585884 -0.555570248949409
vn -0.2126075202885633 -0.8314696050141221 -0.5132799803756309
vn -0.3928474841483584 -0.8314696076205134 -0.3928474841483584
vn -0.5132799803756309 -0.8314696050141221 -0.2126075202885633
vn -0.555570248949409 -0.8314696016585884 -1.3607546018357512e-16
vn -0.3826834370613369 -0.9238795305660377 0
vn -0.3535533942319051 -0.9238795295235227 0.14644661947103244
vn -0.2705980604439119 -0.9238795264362049 0.2705980604439119
vn -0.14644661947103244 -0.9238795295235227 0.3535533942319051
vn -2.3432603017245014e-17 -0.9238795305660377 0.3826834370613369
vn 0.14644661947103244 -0.9238795295235227 0.3535533942319051
vn 0.2705980604439119 -0.9238795264362049 0.2705980604439119
vn 0.3535533942319051 -0.9238795295235227 0.14644661947103244
vn 0.3826834370613369 -0.9238795305660377 4.686520603449003e-17
vn 0.3535533942319051 -0.9238795295235227 -0.14644661947103244
vn 0.2705980604439119 -0.9238795264362049 -0.2705980604439119
vn 0.14644661947103244 -0.9238795295235227 -0.3535533942319051
vn 7.029780739737377e-17 -0.9238795305660377 -0.3826834370613369
vn -0.14644661947103244 -0.9238795295235227 -0.3535533942319051
vn -0.2705980604439119 -0.9238795264362049 -0.2705980604439119
vn -0.3535533942319051 -0.9238795295235227 -0.14644661947103244
vn -0.3826834370613369 -0.9238795305660377 -9.373041206898005e-17
vn -0.19509032931342324 -0.9807852789517083 0
vn -0.18023996563079556 -0.9807852783043076 0.07465783717033021
vn -0.1379496942243388 -0.980785279114049 0.1379496942243388
vn -0.07465783717033021 -0.9807852783043076 0.18023996563079556
vn -1.1945837521388368e-17 -0.9807852789517083 0.19509032931342324
vn 0.07465783717033021 -0.9807852783043076 0.18023996563079556
vn 0.1379496942243388 -0.980785279114049 0.1379496942243388
vn 0.18023996563079556 -0.9807852783043076 0.07465783717033021
vn 0.19509032931342324 -0.9807852789517083 2.3891675042776736e-17
vn 0.18023996563079556 -0.9807852783043076 -0.07465783717033021
vn 0.1379496942243388 -0.980785279114049 -0.1379496942243388
vn 0.07465783717033021 -0.9807852783043076 -0.18023996563079556
vn 3.583751173698447e-17 -0.9807852789517083 -0.19509032931342324
vn -0.07465783717033021 -0.9807852783043076 -0.18023996563079556
vn -0.1379496942243388 -0.980785279114049 -0.1379496942243388
vn -0.18023996563079556 -0.9807852783043076 -0.07465783717033021
vn -0.19509032931342324 -0.9807852789517083 -4.778335008555347e-17
vn -1.2246468525851679e-16 -1 0
vn -1.1314261121795038e-16 -1 4.6865204697224915e-17
vn -8.659560603426554e-17 -1 8.659560603426554e-17
vn -4.6865204697224915e-17 -1 1.1314261121795038e-16
vn -7.498798786105971e-33 -1 1.2246468525851679e-16
vn 4.6865204697224915e-17 -1 1.1314261121795038e-16
vn 8.659560603426554e-17 -1 8.659560603426554e-17
vn 1.1314261121795038e-16 -1 4.6865204697224915e-17
vn 1.2246468525851679e-16 -1 1.4997597572211942e-32
vn 1.1314261121795038e-16 -1 -4.6865204697224915e-17
vn 8.659560603426554e-17 -1 -8.659560603426554e-17
vn 4.6865204697224915e-17 -1 -1.1314261121795038e-16
vn 2.2496396358317913e-32 -1 -1.2246468525851679e-16
vn -4.6865204697224915e-17 -1 -1.1314261121795038e-16
vn -8.659560603426554e-17 -1 -8.659560603426554e-17
vn -1.1314261121795038e-16 -1 -4.6865204697224915e-17
vn -1.2246468525851679e-16 -1 -2.9995195144423884e-32
f 25/1/1 42/18/18 43/19/19
f 26/2/2 43/19/19 44/20/20
f 27/3/3 44/20/20 45/21/21
f 28/4/4 45/21/21 46/22/22
f 29/5/5 46/22/22 47/23/23
f 30/6/6 47/23/23 48/24/24
f 31/7/7 48/24/24 49/25/25
f 32/8/8 49/25/25 50/26/26
f 33/9/9 50/26/26 51/27/27
f 34/10/10 51/27/27 52/28/28
f 35/11/11 52/28/28 53/29/29
f 36/12/12 53/29/29 54/30/30
f 37/13/13 54/30/30 55/31/31
f 38/14/14 55/31/31 56/32/32
f 39/15/15 56/32/32 57/33/33
f 40/16/16 57/33/33 58/34/34
f 43/19/19 42/18/18 60/36/36
f 42/18/18 59/35/35 60/36/36
f 44/20/20 43/19/19 61/37/37
f 43/19/19 60/36/36 61/37/37
f 45/21/21 44/20/20 62/38/38
f 44/20/20 61/37/37 62/38/38
f 46/22/22 45/21/21 63/39/39
f 45/21/21 62/38/38 63/39/39
f 47/23/23 46/22/22 64/40/40
f 46/22/22 63/39/39 64/40/40
f 48/24/24 47/23/23 65/41/41
f 47/23/23 64/40/40 65/41/41
f 49/25/25 48/24/24 66/42/42
f 48/24/24 65/41/41 66/42/42
f 50/26/26 49/25/25 67/43/43
f 49/25/25 66/42/42 67/43/43
f 51/27/27 50/26/26 68/44/44
f 50/26/26 67/43/43 68/44/44
f 52/28/28 51/27/27 69/45/45
f 51/27/27 68/44/44 69/45/45
f 53/29/29 52/28/28 70/46/46
f 52/28/28 69/45/45 70/46/46
f 54/30/30 53/29/29 71/47/47
f 53/29/29 70/46/46 71/47/47
f 55/31/31 54/30/30 72/48/48
f 54/30/30 71/47/47 72/48/48
f 56/32/32 55/31/31 73/49/49
f 55/31/31 72/48/48 73/49/49
f 57/33/33 56/32/32 74/50/50
f 56/32/32 73/49/49 74/50/50
f 58/34/34 57/33/33 75/51/51
f 57/33/33 74/50/50 75/51/51
f 60/36/36 59/35/35 77/53/53
f 59/35/35 76/52/52 77/53/53
f 61/37/37 60/36/36 78/54/54
f 60/36/36 77/53/53 78/54/54
f 62/38/38 61/37/37 79/55/55
f 61/37/37 78/54/54 79/55/55
f 63/39/39 62/38/38 80/56/56
f 62/38/38 79/55/55 80/56/56
f 64/40/40 63/39/39 81/57/57
f 63/39/39 80/56/56 81/57/57
f 65/41/41 64/40/40 82/58/58
f 64/40/40 81/57/57 82/58/58
f 66/42/42 65/41/41 83/59/59
f 65/41/41 82/58/58 83/59/59
f 67/43/43 66/42/42 84/60/60
f 66/42/42 83/59/59 84/60/60
f 68/44/44 67/43/43 85/61/61
f 67/43/43 84/60/60 85/61/61
f 69/45/45 68/44/44 86/62/62
f 68/44/44 85/61/61 86/62/62
f 70/46/46 69/45/45 87/63/63
f 69/45/45 86/62/62 87/63/63
f 71/47/47 70/46/46 88/64/64
f 70/46/46 87/63/63 88/64/64
f 72/48/48 71/47/47 89/65/65
f 71/47/47 88/64/64 89/65/65
f 73/49/49 72/48/48 90/66/66
f 72/48/48 89/65/65 90/66/66
f 74/50/50 73/49/49 91/67/67
f 73/49/49 90/66/66 91/67/67
f 75/51/51 74/50/50 92/68/68
f 74/50/50 91/67/67 92/68/68
f 77/53/53 76/52/52 94/70/70
f 76/52/52 93/69/69 94/70/70
f 78/54/54 77/53/53 95/71/71
f 77/53/53 94/70/70 95/71/71
f 79/55/55 78/54/54 96/72/72
f 78/54/54 95/71/71 96/72/72
f 80/56/56 79/55/55 97/73/73
f 79/55/55 96/72/72 97/73/73
f 81/57/57 80/56/56 98/74/74
f 80/56/56 97/73/73 98/74/74
f 82/58/58 81/57/57 99/75/75
f 81/57/57 98/74/74 99/75/75
f 83/59/59 82/58/58 100/76/76
f 82/58/58 99/75/75 100/76/76
f 84/60/60 83/59/59 101/77/77
f 83/59/59 100/76/76 101/77/77
f 85/61/61 84/60/60 102/78/78
f 84/60/60 101/77/77 102/78/78
f 86/62/62 85/61/61 103/79/79
f 85/61/61 102/78/78 103/79/79
f 87/63/63 86/62/62 104/80/80
f 86/62/62 103/79/79 104/80/80
f 88/64/64 87/63/63 105/81/81
f 87/63/63 104/80/80 105/81/81
f 89/65/65 88/64/64 106/82/82
f 88/64/64 105/81/81 106/82/82
f 90/66/66 89/65/65 107/83/83
f 89/65/65 106/82/82 107/83/83
f 91/67/67 90/66/66 108/84/84
f 90/66/66 107/83/83 108/84/84
f 92/68/68 91/67/67 109/85/85
f 91/67/67 108/84/84 109/85/85
f 94/70/70 93/69/69 111/87/87
f 93/69/69 110/86/86 111/87/87
f 95/71/71 94/70/70 112/88/88
f 94/70/70 111/87/87 112/88/88
f 96/72/72 95/71/71 113/89/89
f 95/71/71 112/88/88 113/89/89
f 97/73/73 96/72/72 114/90/90
f 96/72/72 113/89/89 114/90/90
f 98/74/74 97/73/73 115/91/91
f 97/73/73 114/90/90 115/91/91
f 99/75/75 98/74/74 116/92/92
f 98/74/74 115/91/91 116/92/92
f 100/76/76 99/75/75 117/93/93
f 99/75/75 116/92/92 117/93/93
f 101/77/77 100/76/76 118/94/94
f 100/76/76 117/93/93 118/94/94
f 102/78/78 101/77/77 119/95/95
f 101/77/77 118/94/94 119/95/95
f 103/79/79 102/78/78 120/96/96
f 102/78/78 119/95/95 120/96/96
f 104/80/80 103/79/79 121/97/97
f 103/79/79 120/96/96 121/97/97
f 105/81/81 104/80/80 122/98/98
f 104/80/80 121/97/97 122/98/98
f 106/82/82 105/81/81 123/99/99
f 105/81/81 122/98/98 123/99/99
f 107/83/83 106/82/82 124/100/100
f 106/82/82 123/99/99 124/100/100
f 108/84/84 107/83/83 125/101/101
f 107/83/83 124/100/100 125/101/101
f 109/85/85 108/84/84 126/102/102
f 108/84/84 125/101/101 126/102/102
f 111/87/87 110/86/86 128/104/104
f 110/86/86 127/103/103 128/104/104
f 112/88/88 111/87/87 129/105/105
f 111/87/87 128/104/104 129/105/105
f 113/89/89 112/88/88 130/106/106
f 112/88/88 129/105/105 130/106/106
f 114/90/90 113/89/89 131/107/107
f 113/89/89 130/106/106 131/107/107
f 115/91/91 114/90/90 132/108/108
f 114/90/90 131/107/107 132/108/108
f 116/92/92 115/91/91 133/109/109
f 115/91/91 132/108/108 133/109/109
f 117/93/93 116/92/92 134/110/110
f 116/92/92 133/109/109 134/110/110
f 118/94/94 117/93/93 135/111/111
f 117/93/93 134/110/110 135/111/111
f 119/95/95 118/94/94 136/112/112
f 118/94/94 135/111/111 136/112/112
f 120/96/96 119/95/95 137/113/113
f 119/95/95 136/112/112 137/113/113
f 121/97/97 120/96/96 138/114/114
f 120/96/96 137/113/113 138/114/114
f 122/98/98 121/97/97 139/115/115
f 121/97/97 138/114/114 139/115/115
f 123/99/99 122/98/98 140/116/116
f 122/98/98 139/115/115 140/116/116
f 124/100/100 123/99/99 141/117/117
f 123/99/99 140/116/116 141/117/117
f 125/101/101 124/100/100 142/118/118
f 124/100/100 141/117/117 142/118/118
f 126/102/102 125/101/101 143/119/119
f 125/101/101 142/118/118 143/119/119
f 128/104/104 127/103/103 145/121/121
f 127/103/103 144/120/120 145/121/121
f 129/105/105 128/104/104 146/122/122
f 128/104/104 145/121/121 146/122/122
f 130/106/106 129/105/105 147/123/123
f 129/105/105 146/122/122 147/123/123
f 131/107/107 130/106/106 148/124/124
f 130/106/106 147/123/123 148/124/124
f 132/108/108 131/107/107 149/125/125
f 131/107/107 148/124/124 149/125/125
f 133/109/109 132/108/108 150/126/126
f 132/108/108 149/125/125 150/126/126
f 134/110/110 133/109/109 151/127/127
f 133/109/109 150/126/126 151/127/127
f 135/111/111 134/110/110 152/128/128
f 134/110/110 151/127/127 152/128/128
f 136/112/112 135/111/111 153/129/129
f 135/111/111 152/128/128 153/129/129
f 137/113/113 136/112/112 154/130/130
f 136/112/112 153/129/129 154/130/130
f 138/114/114 137/113/113 155/131/131
f 137/113/113 154/130/130 155/131/131
f 139/115/115 138/114/114 156/132/132
f 138/114/114 155/131/131 156/132/132
f 140/116/116 139/115/115 157/133/133
f 139/115/115 156/132/132 157/133/133
f 141/117/117 140/116/116 158/134/134
f 140/116/116 157/133/133 158/134/134
f 142/118/118 141/117/117 159/135/135
f 141/117/117 158/134/134 159/135/135
f 143/119/119 142/118/118 160/136/136
f 142/118/118 159/135/135 160/136/136
f 145/121/121 144/120/120 162/138/138
f 144/120/120 161/137/137 162/138/138
f 146/122/122 145/121/121 163/139/139
f 145/121/121 162/138/138 163/139/139
f 147/123/123 146/122/122 164/140/140
f 146/122/122 163/139/139 164/140/140
f 148/124/124 147/123/123 165/141/141
f 147/123/123 164/140/140 165/141/141
f 149/125/125 148/124/124 166/142/142
f 148/124/124 165/141/141 166/142/142
f 150/126/126 149/125/125 167/143/143
f 149/125/125 166/142/142 167/143/143
f 151/127/127 150/126/126 168/144/144
f 150/126/126 167/143/143 168/144/144
f 152/128/128 151/127/127 169/145/145
f 151/127/127 168/144/144 169/145/145
f 153/129/129 152/128/128 170/146/146
f 152/128/128 169/145/145 170/146/146
f 154/130/130 153/129/129 171/147/147
f 153/129/129 170/146/146 171/147/147
f 155/131/131 154/130/130 172/148/148
f 154/130/130 171/147/147 172/148/148
f 156/132/132 155/131/131 173/149/149
f 155/131/131 172/148/148 173/149/149
f 157/133/133 156/132/132 174/150/150
f 156/132/132 173/149/149 174/150/150
f 158/134/134 157/133/133 175/151/151
f 157/133/133 174/150/150 175/151/151
f 159/135/135 158/134/134 176/152/152
f 158/134/134 175/151/151 176/152/152
f 160/136/136 159/135/135 177/153/153
f 159/135/135 176/152/152 177/153/153
f 162/138/138 161/137/137 179/155/155
f 161/137/137 178/154/154 179/155/155
f 163/139/139 162/138/138 180/156/156
f 162/138/138 179/155/155 180/156/156
f 164/140/140 163/139/139 181/157/157
f 163/139/139 180/156/156 181/157/157
f 165/141/141 164/140/140 182/158/158
f 164/140/140 181/157/157 182/158/158
f 166/142/142 165/141/141 183/159/159
f 165/141/141 182/158/158 183/159/159
f 167/143/143 166/142/142 184/160/160
f 166/142/142 183/159/159 184/160/160
f 168/144/144 167/143/143 185/161/161
f 167/143/143 184/160/160 185/161/161
f 169/145/145 168/144/144 186/162/162
f 168/144/144 185/161/161 186/162/162
f 170/146/146 169/145/145 187/163/163
f 169/145/145 186/162/162 187/163/163
f 171/147/147 170/146/146 188/164/164
f 170/146/146 187/163/163 188/164/164
f 172/148/148 171/147/147 189/165/165
f 171/147/147 188/164/164 189/165/165
f 173/149/149 172/148/148 190/166/166
f 172/148/148 189/165/165 190/166/166
f 174/150/150 173/149/149 191/167/167
f 173/149/149 190/166/166 191/167/167
f 175/151/151 174/150/150 192/168/168
f 174/150/150 191/167/167 192/168/168
f 176/152/152 175/151/151 193/169/169
f 175/151/151 192/168/168 193/169/169
f 177/153/153 176/152/152 194/170/170
f 176/152/152 193/169/169 194/170/170
f 179/155/155 178/154/154 196/172/172
f 178/154/154 195/171/171 196/172/172
f 180/156/156 179/155/155 197/173/173
f 179/155/155 196/172/172 197/173/173
f 181/157/157 180/156/156 198/174/174
f 180/156/156 197/173/173 198/174/174
f 182/158/158 181/157/157 199/175/175
f 181/157/157 198/174/174 199/175/175
f 183/159/159 182/158/158 200/176/176
f 182/158/158 199/175/175 200/176/176
f 184/160/160 183/159/159 201/177/177
f 183/159/159 200/176/176 201/177/177
f 185/161/161 184/160/160 202/178/178
f 184/160/160 201/177/177 202/178/178
f 186/162/162 185/161/161 203/179/179
f 185/161/161 202/178/178 203/179/179
f 187/163/163 186/162/162 204/180/180
f 186/162/162 203/179/179 204/180/180
f 188/164/164 187/163/163 205/181/181
f 187/163/163 204/180/180 205/181/181
f 189/165/165 188/164/164 206/182/182
f 188/164/164 205/181/181 206/182/182
f 190/166/166 189/165/165 207/183/183
f 189/165/165 206/182/182 207/183/183
f 191/167/167 190/166/166 208/184/184
f 190/166/166 207/183/183 208/184/184
f 192/168/168 191/167/167 209/185/185
f 191/167/167 208/184/184 209/185/185
f 193/169/169 192/168/168 210/186/186
f 192/168/168 209/185/185 210/186/186
f 194/170/170 193/169/169 211/187/187
f 193/169/169 210/186/186 211/187/187
f 196/172/172 195/171/171 213/189/189
f 195/171/171 212/188/188 213/189/189
f 197/173/173 196/172/172 214/190/190
f 196/172/172 213/189/189 214/190/190
f 198/174/174 197/173/173 215/191/191
f 197/173/173 214/190/190 215/191/191
f 199/175/175 198/174/174 216/192/192
f 198/174/174 215/191/191 216/192/192
f 200/176/176 199/175/175 217/193/193
f 199/175/175 216/192/192 217/193/193
f 201/177/177 200/176/176 218/194/194
f 200/176/176 217/193/193 218/194/194
f 202/178/178 201/177/177 219/195/195
f 201/177/177 218/194/194 219/195/195
f 203/179/179 202/178/178 220/196/196
f 202/178/178 219/195/195 220/196/196
f 204/180/180 203/179/179 221/197/197
f 203/179/179 220/196/196 221/197/197
f 205/181/181 204/180/180 222/198/198
f 204/180/180 221/197/197 222/198/198
f 206/182/182 205/181/181 223/199/199
f 205/181/181 222/198/198 223/199/199
f 207/183/183 206/182/182 224/200/200
f 206/182/182 223/199/199 224/200/200
f 208/184/184 207/183/183 225/201/201
f 207/183/183 224/200/200 225/201/201
f 209/185/185 208/184/184 226/202/202
f 208/184/184 225/201/201 226/202/202
f 210/186/186 209/185/185 227/203/203
f 209/185/185 226/202/202 227/203/203
f 211/187/187 210/186/186 228/204/204
f 210/186/186 227/203/203 228/204/204
f 213/189/189 212/188/188 230/206/206
f 212/188/188 229/205/205 230/206/206
f 214/190/190 213/189/189 231/207/207
f 213/189/189 230/206/206 231/207/207
f 215/191/191 214/190/190 232/208/208
f 214/190/190 231/207/207 232/208/208
f 216/192/192 215/191/191 233/209/209
f 215/191/191 232/208/208 233/209/209
f 217/193/193 216/192/192 234/210/210
f 216/192/192 233/209/209 234/210/210
f 218/194/194 217/193/193 235/211/211
f 217/193/193 234/210/210 235/211/211
f 219/195/195 218/194/194 236/212/212
f 218/194/194 235/211/211 236/212/212
f 220/196/196 219/195/195 237/213/213
f 219/195/195 236/212/212 237/213/213
f 221/197/197 220/196/196 238/214/214
f 220/196/196 237/213/213 238/214/214
f 222/198/198 221/197/197 239/215/215
f 221/197/197 238/214/214 239/215/215
f 223/199/199 222/198/198 240/216/216
f 222/198/198 239/215/215 240/216/216
f 224/200/200 223/199/199 241/217/217
f 223/199/199 240/216/216 241/217/217
f 225/201/201 224/200/200 242/218/218
f 224/200/200 241/217/217 242/218/218
f 226/202/202 225/201/201 243/219/219
f 225/201/201 242/218/218 243/219/219
f 227/203/203 226/202/202 244/220/220
f 226/202/202 243/219/219 244/220/220
f 228/204/204 227/203/203 245/221/221
f 227/203/203 244/220/220 245/221/221
f 230/206/206 229/205/205 247/223/223
f 229/205/205 246/222/222 247/223/223
f 231/207/207 230/206/206 248/224/224
f 230/206/206 247/223/223 248/224/224
f 232/208/208 231/207/207 249/225/225
f 231/207/207 248/224/224 249/225/225
f 233/209/209 232/208/208 250/226/226
f 232/208/208 249/225/225 250/226/226
f 234/210/210 233/209/209 251/227/227
f 233/209/209 250/226/226 251/227/227
f 235/211/211 234/210/210 252/228/228
f 234/210/210 251/227/227 252/228/228
f 236/212/212 235/211/211 253/229/229
f 235/211/211 252/228/228 253/229/229
f 237/213/213 236/212/212 254/230/230
f 236/212/212 253/229/229 254/230/230
f 238/214/214 237/213/213 255/231/231
f 237/213/213 254/230/230 255/231/231
f 239/215/215 238/214/214 256/232/232
f 238/214/214 255/231/231 256/232/232
f 240/216/216 239/215/215 257/233/233
f 239/215/215 256/232/232 257/233/233
f 241/217/217 240/216/216 258/234/234
f 240/216/216 257/233/233 258/234/234
f 242/218/218 241/217/217 259/235/235
f 241/217/217 258/234/234 259/235/235
f 243/219/219 242/218/218 260/236/236
f 242/218/218 259/235/235 260/236/236
f 244/220/220 243/219/219 261/237/237
f 243/219/219 260/236/236 261/237/237
f 245/221/221 244/220/220 262/238/238
f 244/220/220 261/237/237 262/238/238
f 247/223/223 246/222/222 264/240/240
f 246/222/222 263/239/239 264/240/240
f 248/224/224 247/223/223 265/241/241
f 247/223/223 264/240/240 265/241/241
f 249/225/225 248/224/224 266/242/242
f 248/224/224 265/241/241 266/242/242
f 250/226/226 249/225/225 267/243/243
f 249/225/225 266/242/242 267/243/243
f 251/227/227 250/226/226 268/244/244
f 250/226/226 267/243/243 268/244/244
f 252/228/228 251/227/227 269/245/245
f 251/227/227 268/244/244 269/245/245
f 253/229/229 252/228/228 270/246/246
f 252/228/228 269/245/245 270/246/246
f 254/230/230 253/229/229 271/247/247
f 253/229/229 270/246/246 271/247/247
f 255/231/231 254/230/230 272/248/248
f 254/230/230 271/247/247 272/248/248
f 256/232/232 255/231/231 273/249/249
f 255/231/231 272/248/248 273/249/249
f 257/233/233 256/232/232 274/250/250
f 256/232/232 273/249/249 274/250/250
f 258/234/234 257/233/233 275/251/251
f 257/233/233 274/250/250 275/251/251
f 259/235/235 258/234/234 276/252/252
f 258/234/234 275/251/251 276/252/252
f 260/236/236 259/235/235 277/253/253
f 259/235/235 276/252/252 277/253/253
f 261/237/237 260/236/236 278/254/254
f 260/236/236 277/253/253 278/254/254
f 262/238/238 261/237/237 279/255/255
f 261/237/237 278/254/254 279/255/255
f 264/240/240 263/239/239 281/257/257
f 263/239/239 280/256/256 281/257/257
f 265/241/241 264/240/240 282/258/258
f 264/240/240 281/257/257 282/258/258
f 266/242/242 265/241/241 283/259/259
f 265/241/241 282/258/258 283/259/259
f 267/243/243 266/242/242 284/260/260
f 266/242/242 283/259/259 284/260/260
f 268/244/244 267/243/243 285/261/261
f 267/243/243 284/260/260 285/261/261
f 269/245/245 268/244/244 286/262/262
f 268/244/244 285/261/261 286/262/262
f 270/246/246 269/245/245 287/263/263
f 269/245/245 286/262/262 287/263/263
f 271/247/247 270/246/246 288/264/264
f 270/246/246 287/263/263 288/264/264
f 272/248/248 271/247/247 289/265/265
f 271/247/247 288/264/264 289/265/265
f 273/249/249 272/248/248 290/266/266
f 272/248/248 289/265/265 290/266/266
f 274/250/250 273/249/249 291/267/267
f 273/249/249 290/266/266 291/267/267
f 275/251/251 274/250/250 292/268/268
f 274/250/250 291/267/267 292/268/268
f 276/252/252 275/251/251 293/269/269
f 275/251/251 292/268/268 293/269/269
f 277/253/253 276/252/252 294/270/270
f 276/252/252 293/269/269 294/270/270
f 278/254/254 277/253/253 295/271/271
f 277/253/253 294/270/270 295/271/271
f 279/255/255 278/254/254 296/272/272
f 278/254/254 295/271/271 296/272/272
f 281/257/257 280/256/256 298/274/274
f 282/258/258 281/257/257 299/275/275
f 283/259/259 282/258/258 300/276/276
f 284/260/260 283/259/259 301/277/277
f 285/261/261 284/260/260 302/278/278
f 286/262/262 285/261/261 303/279/279
f 287/263/263 286/262/262 304/280/280
f 288/264/264 287/263/263 305/281/281
f 289/265/265 288/264/264 306/282/282
f 290/266/266 289/265/265 307/283/283
f 291/267/267 290/266/266 308/284/284
f 292/268/268 291/267/267 309/285/285
f 293/269/269 292/268/268 310/286/286
f 294/270/270 293/269/269 311/287/287
f 295/271/271 294/270/270 312/288/288
f 296/272/272 295/271/271 313/289/289
